# Blender 3.4.1
# www.blender.org
mtllib old_pc.mtl
o computer
v 1.081731 0.000335 3.318551
v 1.081731 0.296943 3.318551
v 1.081731 0.000334 -1.312632
v 1.081731 0.296943 -1.312632
v 2.909830 0.000335 3.318551
v 2.909830 0.296943 3.318551
v 2.909830 0.000334 -1.312632
v 2.909830 0.296943 -1.312632
v -3.409893 3.152641 1.432471
v -3.409893 3.152739 -1.278893
v -0.363062 0.499491 1.904889
v -0.363062 3.546322 1.904888
v -0.363062 3.546421 -1.751309
v -2.805078 0.499491 -1.025531
v -2.805078 0.499491 1.179110
v -0.967877 0.499491 -1.025531
v -0.967877 0.499491 1.179110
v -3.409893 0.893271 -1.278892
v -3.409893 0.893172 1.432471
v -0.363062 0.499590 -1.751309
v -2.805078 0.187387 -1.025531
v -2.805078 0.187387 1.179110
v -0.967877 0.187387 -1.025531
v -0.967877 0.187387 1.179110
v -3.386562 0.187387 -1.723311
v -3.386562 0.187387 1.876891
v -0.386394 0.187387 -1.723311
v -0.386394 0.187387 1.876891
v -3.386562 0.000137 -1.723311
v -3.386562 0.000137 1.876891
v -0.386394 0.000137 -1.723311
v -0.386394 0.000137 1.876891
v 2.556103 0.001841 -4.158267
v 2.556103 0.178695 -4.158267
v 2.556103 0.001841 -3.578477
v 2.556103 0.178695 -3.578477
v 1.827660 0.001841 -4.158267
v 1.827660 0.146234 -4.158267
v 1.827660 0.001841 -3.578477
v 1.827660 0.146234 -3.578477
v 2.672485 0.001841 -3.951768
v 2.672485 0.001841 -3.784976
v 2.672531 0.255185 -3.785071
v 2.672531 0.255185 -3.951673
v 1.711278 0.001841 -3.784976
v 1.711278 0.001841 -3.951768
v 1.711232 0.238095 -3.951673
v 1.711232 0.238095 -3.785071
v 2.191881 0.001841 -3.578477
v 2.191881 0.269002 -3.578477
v 2.191881 0.001841 -4.158267
v 2.191881 0.269001 -4.158267
v 2.191881 0.363970 -3.951673
v 2.191881 0.363970 -3.785071
v 1.076073 0.001842 -2.259241
v 3.330473 0.001842 -2.259241
v 1.076073 0.001841 -5.533972
v 3.330473 0.001841 -5.533972
v -3.297075 -0.000000 -2.867631
v -3.297075 3.934095 -2.867631
v -3.297075 -0.000001 -4.630877
v -3.297075 3.934095 -4.630878
v -0.475880 -0.000000 -2.867631
v -0.475880 3.934095 -2.867631
v -0.475880 -0.000001 -4.630877
v -0.475880 3.934095 -4.630878
vn -1.0000 -0.0000 -0.0000
vn -0.0000 -0.0000 -1.0000
vn 1.0000 -0.0000 -0.0000
vn -0.0000 -0.0000 1.0000
vn -0.0000 -1.0000 -0.0000
vn -0.0000 1.0000 -0.0000
vn -0.1532 -0.0000 -0.9882
vn -0.1532 -0.0000 0.9882
vn -0.1281 0.9918 -0.0000
vn -0.5456 -0.8381 -0.0000
vn -0.1102 -0.9221 -0.3709
vn 0.0001 -1.0000 -0.0000
vn -0.1102 -0.9222 0.3708
vn -0.0162 0.5848 0.8110
vn 0.4587 0.3871 0.7998
vn 0.7587 0.5974 0.2597
vn -0.0195 0.9741 0.2253
vn -0.4716 0.3521 0.8085
vn -0.5045 -0.0000 0.8634
vn -0.0162 0.5848 -0.8110
vn 0.4587 0.3871 -0.7998
vn 0.5045 -0.0000 -0.8634
vn 0.9672 -0.0001 0.2539
vn 0.5045 -0.0000 0.8634
vn -0.7647 0.5882 0.2633
vn -0.9672 -0.0001 0.2539
vn -0.0195 0.9741 -0.2253
vn 0.7587 0.5974 -0.2597
vn -0.9672 -0.0001 -0.2539
vn -0.7647 0.5882 -0.2633
vn -0.4716 0.3521 -0.8085
vn -0.5045 -0.0000 -0.8634
vn 0.9672 -0.0001 -0.2539
vt 0.294444 0.522239
vt 0.192063 0.541411
vt 0.165079 0.531442
vt 0.156349 0.522239
vt 0.294444 0.541411
vt 0.461111 0.192485
vt 0.294444 0.567485
vt 0.307937 0.526074
vt 0.165079 0.580521
vt 0.156349 0.567485
vt 0.147619 0.526074
vt 0.999206 0.192485
vt 0.291270 0.564417
vt 0.192063 0.575153
vt 0.309524 0.531442
vt 0.172222 0.564417
vt 0.294444 0.575153
vt 0.461111 0.002301
vt 0.307937 0.578988
vt 0.291270 0.525307
vt 0.309524 0.580521
vt 0.147619 0.578988
vt 0.172222 0.525307
vt 0.999206 0.002301
vt 0.439683 0.993098
vt 0.465079 0.993098
vt 0.465079 0.944018
vt 0.694444 0.993098
vt 0.483333 0.947086
vt 0.465079 0.993098
vt -0.006349 0.682515
vt 0.720635 0.944018
vt 0.000000 1.000000
vt 0.720635 0.993098
vt 0.720635 0.944018
vt 0.668254 0.947086
vt 0.397619 0.998466
vt 0.720635 0.993098
vt 0.515873 0.983129
vt 0.515873 0.953221
vt 0.314286 0.674847
vt 0.669841 0.983129
vt 0.000000 0.674847
vt 0.669841 0.953221
vt 0.694444 0.944018
vt 0.483333 0.996933
vt 0.465079 0.993098
vt 0.439683 0.944018
vt 0.465079 0.944018
vt 0.668254 0.996933
vt 0.391270 0.680982
vt 0.720635 0.993098
vt 0.515873 0.983129
vt 0.515873 0.953221
vt 0.314286 0.654908
vt 0.669841 0.983129
vt 0.000000 0.654908
vt 0.669841 0.953221
vt 0.515873 0.983129
vt 0.573016 0.981595
vt 0.688889 0.997699
vt 0.572222 0.977761
vt 0.515873 0.953221
vt 0.519048 0.997699
vt 0.669841 0.983129
vt 0.642857 0.981595
vt 0.423810 0.585147
vt 0.644444 0.977761
vt 0.669841 0.953221
vt -0.001587 0.585147
vt 0.586508 0.967025
vt 0.573016 0.957822
vt 0.688889 0.949386
vt 0.572222 0.953221
vt 0.586508 0.957822
vt 0.519048 0.949386
vt 0.624603 0.967025
vt 0.642857 0.957822
vt 0.423810 0.564393
vt 0.644444 0.953221
vt 0.624603 0.957822
vt -0.001587 0.564393
vt 0.811111 0.634969
vt 0.812698 0.585123
vt 0.787302 0.634969
vt 0.846825 0.686350
vt 0.836508 0.585123
vt 0.812698 0.634969
vt 0.846825 0.697086
vt 0.919841 0.686350
vt 0.836508 0.634969
vt 0.823016 0.697086
vt 0.781746 0.634969
vt 0.811111 0.697086
vt 0.800794 0.634969
vt 0.846825 0.624233
vt 0.792063 0.697086
vt 0.846825 0.634969
vt 0.781746 0.585123
vt 0.827778 0.634969
vt 0.800794 0.585123
vt 0.919841 0.624233
vt 0.812698 0.602761
vt 0.812698 0.617331
vt 0.846825 0.617331
vt 0.896825 0.697086
vt 0.846825 0.602761
vt 0.876190 0.697086
vt 0.781746 0.602761
vt 0.781746 0.617331
vt 0.812698 0.617331
vt 0.876984 0.615031
vt 0.812698 0.602761
vt 0.898413 0.615031
vt 0.846825 0.666411
vt 0.811111 0.666411
vt 0.924603 0.656442
vt 0.811111 0.666411
vt 0.851587 0.656442
vt 0.775397 0.666411
vt 0.880952 0.657209
vt 0.902381 0.657209
vt 0.658730 0.995399
vt 0.658730 0.982362
vt 0.678571 0.995399
vt 0.678571 0.982362
vt 1.000794 0.503067
vt 0.489683 0.949386
vt 0.676984 0.957822
vt 1.000794 0.998466
vt 0.489683 0.955521
vt 0.499206 0.947853
vt 0.774603 0.503067
vt 0.184127 0.713957
vt 0.676984 0.964724
vt 0.774603 0.998466
vt 0.204762 0.713957
vt 0.499206 0.954755
vt 0.000794 0.003067
vt 0.510317 0.949386
vt 0.688889 0.957822
vt 0.000794 0.496933
vt 0.510317 0.955521
vt 0.510317 0.947853
vt 0.184127 0.694018
vt 0.229365 0.003067
vt 0.688889 0.964724
vt 0.204762 0.694018
vt 0.229365 0.496933
vt 0.510317 0.954755
s 1
usemtl Computer
f 1/1/1 2/4/1 4/10/1 3/7/1
f 3/8/2 4/11/2 8/22/2 7/19/2
f 7/20/3 8/23/3 6/16/3 5/13/3
f 5/14/4 6/17/4 2/5/4 1/2/4
f 3/9/5 7/21/5 5/15/5 1/3/5
f 8/24/6 4/12/6 2/6/6 6/18/6
f 19/48/1 9/25/1 10/28/1 18/45/1
f 18/46/7 10/29/7 13/36/7 20/50/7
f 20/51/3 13/37/3 12/33/3 11/31/3
f 11/32/8 12/34/8 9/26/8 19/49/8
f 13/38/9 10/30/9 9/27/9 12/35/9
f 16/41/3 17/43/3 24/57/3 23/55/3
f 14/39/10 15/40/10 19/49/10 18/47/10
f 16/42/11 14/39/11 18/47/11 20/52/11
f 17/44/12 16/42/12 20/52/12 11/32/12
f 15/40/13 17/44/13 11/32/13 19/49/13
f 23/56/6 24/58/6 28/69/6 27/65/6
f 15/40/1 14/39/1 21/53/1 22/54/1
f 17/44/4 15/40/4 22/54/4 24/58/4
f 14/39/2 16/42/2 23/56/2 21/53/2
f 28/68/4 26/62/4 30/74/4 32/80/4
f 22/54/6 21/53/6 25/59/6 26/63/6
f 24/58/6 22/54/6 26/63/6 28/69/6
f 21/53/6 23/56/6 27/65/6 25/59/6
f 29/71/5 31/77/5 32/81/5 30/75/5
f 25/60/2 27/66/2 31/78/2 29/72/2
f 27/67/3 28/70/3 32/82/3 31/79/3
f 26/64/1 25/61/1 29/73/1 30/76/1
f 50/117/14 36/90/15 43/106/16 54/122/17
f 49/115/4 50/116/14 40/100/18 39/98/19
f 51/118/2 52/120/20 34/85/21 33/83/22
f 42/104/23 43/105/16 36/91/15 35/88/24
f 39/99/19 40/101/18 48/113/25 45/109/26
f 53/121/27 44/108/28 34/86/21 52/119/20
f 46/110/29 47/111/30 38/95/31 37/93/32
f 53/121/27 47/112/30 48/114/25 54/122/17
f 47/111/30 46/110/29 45/109/26 48/113/25
f 43/105/16 42/104/23 41/103/33 44/107/28
f 33/84/22 34/87/21 44/107/28 41/103/33
f 44/108/28 53/121/27 54/122/17 43/106/16
f 47/112/30 53/121/27 52/119/20 38/96/31
f 37/94/32 38/97/31 52/120/20 51/118/2
f 35/89/24 36/92/15 50/116/14 49/115/4
f 40/102/18 50/117/14 54/122/17 48/114/25
f 55/123/6 56/124/6 58/126/6 57/125/6
f 59/127/1 60/130/1 62/136/1 61/133/1
f 61/134/2 62/137/2 66/148/2 65/145/2
f 65/146/3 66/149/3 64/142/3 63/139/3
f 63/140/4 64/143/4 60/131/4 59/128/4
f 61/135/5 65/147/5 63/141/5 59/129/5
f 66/150/6 62/138/6 60/132/6 64/144/6
